# xmcd
#
# Track frame offsets:
# 150
# 18219
# 36028
# 55839
# 70932
# 88756
# 108136
# 124260
# 146647
# 162041
# 182344
# 201168
# 217243
# 231004
# 247863
# 266845
# 282808
# 296616
# 311678
# 333094
#
# Disc length: 4683 seconds
#
# Revision: 0
# Processed by: cddbd v1.5.1PL0 Copyright (c) Steve Scherf et al.
# Submitted via: Audion 3.0.2 (http://www.panic.com/audion/)
#
DISCID=1e124914
DTITLE=contry - dsm_mix
DYEAR=1900
DGENRE=
TTITLE0=t1
TTITLE1=t2
TTITLE2=t3
TTITLE3=t4
TTITLE4=t5
TTITLE5=t6
TTITLE6=t7
TTITLE7=t8
TTITLE8=t9
TTITLE9=t10
TTITLE10=t11
TTITLE11=t12
TTITLE12=t13
TTITLE13=t14
TTITLE14=t15
TTITLE15=t16
TTITLE16=t17
TTITLE17=t18
TTITLE18=t19
TTITLE19=20
EXTD=
EXTT0=
EXTT1=
EXTT2=
EXTT3=
EXTT4=
EXTT5=
EXTT6=
EXTT7=
EXTT8=
EXTT9=
EXTT10=
EXTT11=
EXTT12=
EXTT13=
EXTT14=
EXTT15=
EXTT16=
EXTT17=
EXTT18=
EXTT19=
PLAYORDER=
